<svg width="767" height="207" viewBox="0 0 767 207" fill="none" xmlns="http://www.w3.org/2000/svg">
<path fill-rule="evenodd" clip-rule="evenodd" d="M142.324 0.865002C139.849 1.336 135.221 2.952 132.04 4.456L126.256 7.19L119.876 5.49C112.25 3.458 103.877 3.338 96.1771 5.15C90.3191 6.529 81.3241 11.171 81.3241 12.815C81.3241 13.333 78.9621 14.951 76.0741 16.412C57.5931 25.759 41.0961 42.305 31.4481 61.171C29.2641 65.441 25.1681 71.376 22.3451 74.361C19.5221 77.346 16.2911 81.871 15.1651 84.416C12.6821 90.031 13.4831 92.523 19.4041 97.59C21.5601 99.436 23.3241 101.319 23.3241 101.774C23.3241 102.23 20.9621 102.912 18.0741 103.291C15.1861 103.67 11.7961 104.633 10.5391 105.431C9.27514 106.233 6.26214 111.089 3.79714 116.293C-0.122862 124.571 -0.525862 126.04 0.447138 128.497C1.05514 130.033 1.51114 132.858 1.46014 134.774C1.40414 136.892 2.29614 139.661 3.73914 141.841C5.10614 143.906 6.54514 148.217 7.13714 152.014C7.70114 155.638 8.76114 159.665 9.49314 160.962C11.8281 165.1 22.8491 174.746 25.9051 175.327C29.0761 175.929 35.9811 174.729 40.9551 172.711C44.0471 171.457 44.1691 171.524 50.6421 177.997C62.2511 189.606 79.3771 199.343 96.3241 203.97C103.72 205.989 107.032 206.282 121.824 206.231C137.392 206.176 139.582 205.941 147.824 203.436C165.825 197.964 182.919 187.539 194.54 174.945C202.258 166.579 205.91 161.178 211.835 149.361C216.308 140.439 217.187 139.298 220.023 138.718C224.241 137.855 236.194 127.34 236.863 123.905C237.143 122.467 238.343 117.915 239.53 113.79C243.08 101.45 243.004 98.319 238.91 88.43C235.988 81.37 235.324 78.499 235.324 72.918C235.324 67.224 234.894 65.435 232.771 62.307C231.367 60.238 229.841 56.528 229.38 54.063C228.414 48.892 227.651 47.984 220.549 43.553C217.672 41.758 212.903 38.567 209.95 36.462C202.114 30.876 198.269 30.644 188.711 35.183C184.487 37.189 180.775 38.574 180.462 38.261C180.148 37.948 180.901 33.776 182.134 28.991C183.367 24.205 184.364 19.312 184.35 18.117C184.278 12.086 171.771 4.4 157.116 1.379C148.655 -0.364998 148.771 -0.360998 142.324 0.865002ZM80.1351 41.993C82.9131 49.897 86.6131 55.179 96.0581 64.723C106.591 75.367 111.438 81.652 115.029 89.322C117.497 94.591 117.816 96.402 117.759 104.79C117.691 114.739 117.139 116.641 108.928 135.163L106.325 141.036L98.5801 134.163C88.5751 125.284 87.6841 124.258 84.7781 118.29C82.7801 114.186 82.3441 111.766 82.3491 104.79C82.3511 100.115 83.0631 93.365 83.9291 89.79C86.5041 79.166 86.1041 69.277 82.8001 61.916C79.0231 53.5 75.6611 50.79 68.9971 50.791C62.2651 50.792 53.1301 55.089 48.0341 60.652C44.9481 64.021 43.5801 64.79 40.6771 64.79C36.5291 64.79 36.5691 64.413 41.6231 55.891C46.3611 47.9 59.2371 34.748 68.5961 28.34L76.8241 22.706L77.5401 29.677C77.9341 33.51 79.1021 39.053 80.1351 41.993ZM313.475 36.894C305.442 38.109 296.597 41.685 290.435 46.209C281.776 52.565 277.324 61.403 277.324 72.238C277.324 81.781 279.688 87.32 286.745 94.312C294.133 101.632 300.696 105.164 318.324 111.306C338.794 118.439 344.096 121.608 346.934 128.4C352.8 142.438 339.941 154.063 320.372 152.413C306.518 151.245 297.63 144.477 295.811 133.712L295.148 129.79H284.097H273.045L273.647 134.867C276.095 155.539 296.749 169.76 324.324 169.76C341.577 169.76 353.86 165.361 362.258 156.172C368.741 149.078 370.804 142.626 370.06 131.767C368.82 113.678 358.065 103.883 328.488 93.905C314.271 89.109 308.965 86.631 304.985 82.93C292.855 71.651 301.223 55.531 319.99 54.025C335.126 52.81 345.497 59.533 347.852 72.087L348.547 75.79H359.564H370.582L369.909 70.719C367.879 55.42 356.334 43.246 339.281 38.423C331.972 36.356 321.234 35.72 313.475 36.894ZM400.324 103.257V168.79H411.324H422.324V122.576C422.324 83.538 422.535 76.589 423.685 77.826C424.434 78.631 433.201 92.34 443.168 108.29C453.134 124.24 465.689 144.265 471.067 152.79L480.844 168.29H491.834H502.824L503.081 103.04L503.338 37.79H492.331H481.324V83.79C481.324 109.09 480.987 129.787 480.574 129.783C480.161 129.779 474.306 120.892 467.563 110.033C460.819 99.174 447.956 78.59 438.977 64.29L422.653 38.29L411.488 38.007L400.324 37.724V103.257ZM577.641 41.54C576.771 43.603 569.641 62.39 561.797 83.29C553.953 104.19 543.663 131.516 538.93 144.015C534.196 156.514 530.324 167.216 530.324 167.798C530.324 168.495 534.146 168.759 541.545 168.573L552.765 168.29L554.378 163.79C555.266 161.315 557.693 154.445 559.773 148.523L563.553 137.757L589.066 138.023L614.578 138.29L619.708 153.29L624.837 168.29L635.263 168.577C640.997 168.735 646.222 168.659 646.874 168.409C647.666 168.105 643.943 157.042 635.674 135.122C628.863 117.064 617.83 87.778 611.157 70.04L599.024 37.79H589.123H579.222L577.641 41.54ZM669.324 84.154C669.324 111.115 669.746 132.74 670.332 135.83C674.405 157.308 691.745 169.79 717.508 169.79C742.923 169.79 760.857 157.456 765.2 136.991C765.941 133.497 766.324 115.695 766.324 84.741V37.79H755.324H744.324V84.108C744.324 135.902 744.13 137.678 737.704 144.791C733.122 149.863 726.787 152.234 717.824 152.234C708.861 152.234 702.526 149.863 697.944 144.791C691.518 137.678 691.324 135.902 691.324 84.108V37.79H680.324H669.324V84.154ZM598.762 92.93L608.086 119.29L589.561 119.563C579.372 119.713 570.864 119.663 570.654 119.454C570.444 119.244 574.334 107.204 579.298 92.699C584.262 78.194 588.324 66.131 588.324 65.892C588.324 63.979 590.676 70.071 598.762 92.93ZM162.246 118.223C165.228 119.749 170.403 123.091 173.746 125.65C181.4 131.509 190.067 135.414 200.04 137.499C204.321 138.394 208.196 139.445 208.651 139.835C209.105 140.225 208.031 143.411 206.264 146.917C193.055 173.114 170.034 191.462 141.561 198.487C131.202 201.043 110.306 200.781 98.8841 197.952C82.2011 193.819 66.6451 184.892 54.4401 172.446L49.0551 166.955L52.5731 162.622C54.5081 160.24 57.5511 155.365 59.3371 151.79C65.8201 138.804 71.8871 133.79 81.1131 133.79C86.8601 133.79 92.6571 137.173 99.3501 144.434C103.539 148.978 103.578 149.089 102.984 154.77C101.879 165.342 106.181 180.489 111.784 185.752L114.042 187.873L112.109 182.15C107.677 169.02 108.984 156.151 116.489 139.024C121.562 127.446 126.194 122.025 134.677 117.734C140.354 114.863 141.436 114.657 148.824 115.037C155.054 115.358 158.024 116.062 162.246 118.223Z" fill="#00A43F"/>
</svg>
