<svg width="1452" height="1736" viewBox="0 0 1452 1736" fill="none" xmlns="http://www.w3.org/2000/svg">
<path fill-rule="evenodd" clip-rule="evenodd" d="M997.377 1.978C987.513 4.564 978.068 8.738 964.275 16.608C937.065 32.132 930.705 37.322 891.5 75.985C846.183 120.676 833.203 129.515 810.25 131.319C806.813 131.589 804 131.509 804 131.141C804 130.774 807.442 124.179 811.648 116.486C825.269 91.577 828.287 79.334 824.053 66.165C821.389 57.88 821.207 57.872 811.51 65.6C807.74 68.604 801.837 72.408 798.391 74.052C784.07 80.887 758.774 87.582 736.345 90.474C708.873 94.016 675.515 106.275 655.172 120.304C617.831 146.056 615.113 194.369 648.789 233.786C659.091 245.845 677.641 257.804 691.644 261.416C702.762 264.282 702.115 264.753 706.986 250.25C713.158 231.873 716.074 226.165 722.3 220.278C733.341 209.835 746.162 205.642 784 200.098C817.316 195.217 824.101 193.376 835.329 186.173C843.895 180.677 848.55 179.121 850.525 181.096C853.34 183.912 854.398 194.376 853.153 207.098C851.657 222.382 849.524 228.769 840.495 245C833.782 257.066 833.196 258.534 834.98 258.818C840.521 259.701 868.386 250.321 885.053 241.963C911.109 228.897 932.515 208.256 944.707 184.443C954.127 166.042 958.059 152.388 965.565 112C976.413 53.625 985.668 29.769 1006.01 7.75L1013.17 0L1008.83 0.0549999C1006.45 0.0849999 1001.29 0.95 997.377 1.978ZM580.233 316.75L580.5 342.5L593.092 343C604.997 343.473 605.915 343.66 609.907 346.431C616.935 351.309 626.447 363.411 649.033 396.21C664.185 418.213 667.811 422.609 672.364 424.498C674.846 425.528 696.257 425.872 775.085 426.149L874.671 426.5L878.948 423.536C884.355 419.789 892.024 409.866 909.502 384C936.036 344.733 934.918 345.717 953.667 345.16C967.816 344.74 966.319 346.326 968.115 329.854C969.222 319.71 968.88 297.049 967.573 293.915C966.978 292.487 955.953 292.264 856.706 291.665C796.093 291.3 709.03 291.001 663.233 291.001L579.966 291L580.233 316.75ZM41 416.455V440.909L44.25 441.441C46.037 441.734 52.9 442.677 59.5 443.537C104.451 449.397 129.231 460.409 144.928 481.5C154.835 494.811 160.152 507.054 163.819 525L166.373 537.5L167.086 874.5C167.478 1059.85 168.053 1213.3 168.364 1215.5C168.674 1217.7 169.415 1226.03 170.011 1234C172.277 1264.33 178.166 1297.59 186.037 1324.5C189.23 1335.42 197.563 1359.73 198.471 1360.77C198.81 1361.16 238.847 1355.39 256.5 1352.41C288.258 1347.05 302.899 1343.46 367.858 1325.14C379.605 1321.83 389.443 1318.89 389.72 1318.61C389.997 1318.34 389.727 1313.7 389.121 1308.31C388.514 1302.91 387.53 1292.43 386.933 1285C385.547 1267.74 384.732 624.354 386.044 582.5C388.065 517.996 394.518 494.049 415.435 473.42C428.73 460.308 443.488 452.977 467.75 447.429L480 444.628V418.314V392H260.5H41V416.455ZM1054 419.928V447.856L1059.25 448.356C1084.7 450.778 1096.69 453.271 1110.22 458.957C1137.94 470.606 1158 493.008 1166.2 521.5L1168.5 529.5L1168.77 749.328C1168.92 873.292 1169.41 969.013 1169.9 968.828C1170.38 968.648 1190.77 955.676 1215.22 940.002L1259.67 911.504L1260.34 785.002C1260.7 715.426 1261 630.752 1261 596.838C1261 531.395 1261.19 528.149 1265.94 514.566C1274.56 489.928 1296.18 469.019 1326.07 456.409C1336.61 451.963 1343.26 450.44 1358.75 448.92L1371 447.717V419.858V392H1212.5H1054V419.928ZM703.422 467.25C707.494 528.622 723.198 718.531 724.291 719.624C724.481 719.815 728.419 719.305 733.042 718.493C754.983 714.635 790.545 714.145 818.721 717.313L829.941 718.574L830.452 714.537C830.733 712.317 834.794 654.925 839.475 587C844.157 519.075 848.125 462.038 848.293 460.25L848.598 457H775.67H702.742L703.422 467.25ZM1292.47 684.972C1284.21 685.946 1276 687.062 1274.22 687.451L1271 688.159V705.079C1271 714.386 1271.34 721.999 1271.75 721.997C1272.16 721.995 1277 721.123 1282.5 720.058C1316.25 713.525 1358 713.332 1379.78 719.609C1418.15 730.671 1428.47 764.959 1405.11 803.82C1387.83 832.567 1351.9 866.454 1292.78 909.761C1173.15 997.387 1091.06 1046.84 939 1122.86C796.69 1194.01 677.456 1243.93 536 1291.59C442.256 1323.18 360.183 1345.82 279.5 1362.36C202.444 1378.16 123.777 1381.09 76.16 1369.95C53.573 1364.66 39.174 1355.06 35.556 1342.88C26.021 1310.77 58.278 1266.77 138.436 1202.55C147.201 1195.53 155.188 1189.27 156.186 1188.65C157.841 1187.62 158 1185.74 158 1167.26C158 1156.12 157.751 1147 157.448 1147C156.347 1147 121.185 1174.05 108.555 1184.61C23.019 1256.15 -14.436 1320.86 5.45301 1362.74C19.904 1393.17 77.626 1417.56 156.342 1426.5C169.121 1427.95 205.775 1429.68 220.958 1429.55L227.415 1429.5L234.074 1441.71C248.281 1467.77 279.392 1517.2 292.472 1534.5C318.13 1568.44 348.295 1597.53 391.5 1629.98C440.29 1666.63 470.774 1683.38 525.028 1703.32C574.183 1721.4 603.173 1728.58 647.112 1733.56C666.215 1735.73 723.854 1736.62 746.535 1735.1C818.451 1730.28 879.067 1714.24 941.5 1683.53C1087.64 1611.64 1190.44 1477.79 1234.53 1302C1253.6 1225.94 1261.11 1151.26 1259.53 1053.39L1258.84 1010.28L1276.17 996.952C1316.15 966.215 1339.22 946.628 1363.87 922.501C1414.14 873.303 1440.44 832.36 1449.65 789C1452.35 776.256 1452.11 752.505 1449.14 740.502C1447.92 735.554 1445.88 729.254 1444.61 726.502C1436.58 709.072 1414.77 695.285 1383.67 687.964C1361.31 682.703 1322.53 681.431 1292.47 684.972ZM1135.34 717.493C1094.65 728.499 1037.47 747.796 982.836 768.967L964.172 776.199L979.827 786.736L995.482 797.273L1044.99 780.693C1099.71 762.367 1114.57 757.76 1138.98 751.538C1152.18 748.174 1155.48 746.994 1155.42 745.664C1155.37 744.749 1155.26 737.025 1155.17 728.5C1155.02 714.442 1154.84 713.006 1153.25 713.062C1152.29 713.096 1144.23 715.09 1135.34 717.493ZM752 731.084C721.787 733.97 691.934 741.223 662.785 752.76L651.069 757.397L617.648 831.712L584.228 906.028L587.44 909.264C589.207 911.044 591.073 913.264 591.586 914.197C592.438 915.744 603.996 913.641 721.926 890.487C801.851 874.795 851.645 864.587 852.151 863.79C852.601 863.081 852.976 861.865 852.985 861.088C852.993 860.311 854.081 857.831 855.402 855.577C858.395 850.47 864.539 846.9 871.711 846.102L877.123 845.5L898.528 804C917.464 767.284 919.746 762.36 918.321 761.284C915.616 759.241 893.218 750.084 880.658 745.886C858.57 738.502 832.873 733.177 809 731.038C795.843 729.858 764.567 729.884 752 731.084ZM628.477 769.101C590.424 790.252 556.807 819.5 530.203 854.603C521.557 866.011 508.796 886.215 509.723 887.028C510.151 887.402 521.574 892.754 535.11 898.92L559.719 910.13L563.46 907.592C566.688 905.401 569.248 904.592 575.828 903.683C577.094 903.509 640.889 763 639.702 763C639.566 763 634.514 765.746 628.477 769.101ZM905.756 807.961L884.013 849.911L886.506 852.601C887.878 854.081 889 855.676 889 856.146C889 856.616 889.816 857 890.814 857C892.852 857 959.053 844.086 959.992 843.505C960.572 843.146 955.346 784.732 954.518 782.313C954.15 781.24 932.402 767.835 928.94 766.548C927.881 766.154 921.751 777.103 905.756 807.961ZM963.313 789.625C963.603 790.656 964.839 802.525 966.059 816C967.279 829.475 968.576 840.839 968.942 841.253C969.465 841.846 999.852 836.332 1011.92 833.454C1014.18 832.916 1013.71 832.238 1004.92 823.36C994.906 813.244 981.366 801.295 971.5 793.869C963.236 787.649 962.676 787.358 963.313 789.625ZM993.598 845.084C980.452 847.772 969.611 850.09 969.507 850.235C969.3 850.525 991.242 1078.34 991.518 1078.76C991.843 1079.26 1049.84 1048.55 1081.25 1031.26L1092.99 1024.79L1092.51 1019.64C1089.83 991.416 1088.07 980.185 1083.47 962C1073.59 922.984 1053.54 882.287 1028.15 849.75C1023.96 844.388 1019.86 840.045 1019.02 840.099C1018.18 840.153 1006.74 842.397 993.598 845.084ZM924.75 858.817C906.737 862.472 891.997 865.92 891.994 866.481C891.976 869.902 889.383 875.677 886.367 879.015C882.404 883.402 877.819 885.256 870.575 885.401L865.592 885.5L843.262 928.5C830.981 952.15 817.077 978.96 812.366 988.078L803.799 1004.66L806.951 1009.13C809.224 1012.35 810.264 1015.16 810.679 1019.18L811.254 1024.75L886.877 1059.23L962.5 1093.71L973.133 1088.41L983.766 1083.1L983.29 1078.8C983.029 1076.44 978.019 1024.55 972.157 963.5C961.942 857.1 961.417 852.493 959.5 852.337C958.4 852.247 942.763 855.163 924.75 858.817ZM723.317 898.86C652.817 912.962 594.878 924.764 594.564 925.087C594.25 925.409 634.666 944.225 684.378 966.9L774.762 1008.13L779.345 1004.9C783.004 1002.32 785.262 1001.55 790.55 1001.08L797.172 1000.5L828.057 940.609L858.941 880.719L856.471 877.783C855.112 876.168 854 874.431 854 873.923C854 873.415 853.438 873.05 852.75 873.11C852.063 873.171 793.818 884.758 723.317 898.86ZM500.183 903.681C493.709 916.644 486.433 934.767 487.339 935.672C487.736 936.069 503.009 933.464 521.28 929.884L554.5 923.375L554.778 919.938L555.056 916.5L530.902 905.5C517.617 899.45 506.374 894.357 505.918 894.181C505.461 894.006 502.881 898.281 500.183 903.681ZM519.294 939.351C499.931 943.283 483.65 946.95 483.114 947.5C481.784 948.865 475.732 971.86 476.308 973.361C476.714 974.418 515.64 1034.76 516.697 1035.97C517.392 1036.77 518.163 1035.13 539.949 986.498L561.099 939.287L558.799 935.686C557.535 933.705 556.05 932.111 555.5 932.143C554.95 932.175 538.657 935.419 519.294 939.351ZM588.596 936.9C584.459 941.218 580.03 942.997 573.349 943.022L567.5 943.045L544.793 993.669L522.086 1044.29L584.293 1140.13C618.507 1192.84 646.964 1235.97 647.53 1235.98C649.068 1236.01 681.34 1222.99 682.5 1221.87C683.05 1221.35 704.926 1179.42 731.114 1128.71C777.25 1039.36 778.673 1036.44 776.981 1034.5C773.691 1030.73 771.648 1025.5 771.632 1020.79L771.615 1016.09L683.058 975.412C634.351 953.038 593.82 934.544 592.989 934.312C592.158 934.081 590.181 935.245 588.596 936.9ZM429.25 998.176L396 1017.11V1037.11C396 1048.12 396.337 1056.92 396.75 1056.68C397.163 1056.44 410.775 1048.7 427 1039.47C443.225 1030.25 456.825 1022.42 457.222 1022.08C457.922 1021.47 463.338 979.967 462.779 979.484C462.626 979.352 447.538 987.763 429.25 998.176ZM472.158 994.207C468.528 1020.23 468.283 1050.79 471.506 1075.5C473.22 1088.64 477.364 1109.86 479.32 1115.51L480.56 1119.09L496.53 1083.31C505.314 1063.64 512.454 1047.06 512.397 1046.48C512.308 1045.57 475.859 988.805 474.012 986.707C473.629 986.272 472.794 989.647 472.158 994.207ZM804.939 1034.57C802.412 1037.62 796.192 1040 790.764 1040H785.448L739.728 1128.17C714.583 1176.67 694.208 1216.54 694.45 1216.78C695.691 1218.02 791.178 1176.35 847 1150.21C892.282 1129 951 1100.18 951 1099.17C951 1098.34 809.152 1033 807.365 1033C806.749 1033 805.657 1033.71 804.939 1034.57ZM500.52 1092.25C481.376 1134.82 482.515 1129.09 489.603 1147.24C502.276 1179.69 520.778 1210.25 544.254 1237.5C553.765 1248.54 570.28 1265.04 571.727 1264.95C572.152 1264.93 587.125 1259.37 605 1252.61C627.074 1244.25 637.466 1239.86 637.393 1238.91C637.269 1237.29 518.814 1055 517.885 1055C517.546 1055 509.732 1071.76 500.52 1092.25ZM1168.67 1112.25C1167.94 1153.39 1166.96 1170.18 1163.47 1201.5C1152.42 1300.75 1121.88 1399.38 1079.12 1473.92C1014.38 1586.74 923.87 1650.79 812.641 1662.47C795.884 1664.23 757.184 1664.51 740.5 1663C709.878 1660.22 681.685 1652.75 638 1635.81C610.63 1625.2 591.704 1615.2 564.234 1596.85C499.956 1553.9 457.429 1507.11 428.496 1447.5C419.673 1429.32 407.896 1399.56 409.148 1398.6C409.342 1398.46 416.25 1396.63 424.5 1394.54C487.9 1378.51 567.215 1354.19 635.239 1329.92L659.978 1321.09L670.239 1324.94C682.045 1329.37 697.982 1334.35 698.547 1333.79C698.758 1333.58 695.797 1328.86 691.966 1323.3C688.135 1317.74 685 1312.79 685 1312.3C685 1311.54 690.523 1309 692.173 1309C692.465 1309 697.095 1315.47 702.462 1323.37L712.219 1337.74L724.36 1339.84C747.466 1343.84 755.152 1344.45 781.5 1344.43C809.136 1344.4 820.717 1343.31 844.548 1338.5C899.538 1327.41 952.768 1300.24 993.799 1262.32L1000.1 1256.5L996.549 1218.18C994.597 1197.11 993.005 1179.11 993.01 1178.18C993.016 1177.16 994.655 1175.81 997.179 1174.75C999.466 1173.79 1001.42 1173.12 1001.52 1173.25C1001.62 1173.39 1002.93 1190.15 1004.43 1210.5C1005.93 1230.85 1007.25 1247.9 1007.37 1248.39C1008.04 1251.07 1035.58 1216.31 1046.5 1199C1052.19 1189.98 1070 1155.77 1070 1153.86C1070 1153.5 1065.95 1151.49 1061 1149.39C1056.05 1147.29 1052 1145.34 1052 1145.04C1052 1144.74 1053.96 1143.45 1056.37 1142.18L1060.73 1139.86L1066.98 1142.49C1070.41 1143.93 1073.33 1144.98 1073.47 1144.81C1073.61 1144.64 1074.72 1141.47 1075.94 1137.76C1078.48 1130.04 1078.02 1130.43 1096.5 1119.98C1111.54 1111.48 1137.02 1095.88 1155 1084.17C1161.88 1079.69 1167.91 1076.02 1168.41 1076.01C1168.96 1076 1169.06 1090.6 1168.67 1112.25ZM742 1356.37C742 1357.12 744.039 1380.41 746.531 1408.12C749.023 1435.83 751.713 1469.07 752.51 1482C754.061 1507.16 755.474 1514.91 759.784 1521.91C763.199 1527.45 768.18 1530.08 776.537 1530.76C790.446 1531.87 797.74 1525.56 799.377 1511C799.717 1507.97 802.011 1474.67 804.475 1437C806.94 1399.33 809.219 1365.76 809.541 1362.41L810.125 1356.32L804.313 1357.2C794.364 1358.71 765.502 1358.37 754.074 1356.61C741.492 1354.67 742 1354.68 742 1356.37Z" fill="#10365D"/>
</svg>
