<svg width="1748" height="1165" viewBox="0 0 1748 1165" fill="none" xmlns="http://www.w3.org/2000/svg">
<path fill-rule="evenodd" clip-rule="evenodd" d="M677.927 0.943572C671.173 1.93757 660.602 5.81657 653.366 9.95557C643.237 15.7516 629.827 27.0896 608.24 48.1096C579.846 75.7586 568.969 83.8296 555.307 87.3876C546.078 89.7916 545.234 89.5166 548.93 85.3066C553.79 79.7716 556.727 74.6256 558.492 68.5536C560.419 61.9256 560.792 47.5386 559.14 43.5186L557.965 40.6576L553.573 44.7056C544.769 52.8206 533.859 56.4966 510 59.3856C469.651 64.2726 453.796 70.2256 439.975 85.6766C418.531 109.652 422.473 138.624 450.366 162.05C456.842 167.49 472.37 175.996 478.179 177.287C480.731 177.854 480.91 177.632 481.961 172.566C484.568 160.008 492.048 149.896 502.66 144.581C512.713 139.546 520.287 137.889 544.71 135.381C564.943 133.304 570.778 131.152 573.192 124.88L574.154 122.38L576.543 125.146C580.359 129.565 581.462 135.197 580.114 143.38C578.908 150.702 572.828 164.791 568.326 170.696C566.936 172.519 566.061 174.274 566.382 174.595C567.269 175.482 579.68 173.208 587 170.816C618.531 160.515 638.208 136.305 650.344 92.8796C651.804 87.6546 655.262 73.7236 658.027 61.9216C666.359 26.3726 670.98 14.7516 680.811 4.62957C683.349 2.01757 684.992 -0.0654279 684.462 0.00157212C683.933 0.0685721 680.992 0.492572 677.927 0.943572ZM389 208.88V226.88H397.162C410.321 226.88 414.266 230.216 429.129 253.914C441.958 274.369 446.794 279.617 454.882 281.864C457.128 282.488 482.309 282.871 521.282 282.874C571.904 282.879 584.688 282.617 587.282 281.523C592.153 279.47 598.623 271.891 609.898 255.033C626.031 230.911 629.001 228.446 643.405 227.229L651 226.587V208.733V190.88H520H389V208.88ZM25.652 264.627C25.301 268.341 25.011 277.014 25.007 283.899L25 296.419L40.894 298.619C86.528 304.937 100.791 318.467 104.904 359.339C105.651 366.761 106.001 424.048 106.004 539.304C106.009 706.998 106.62 750.972 109.537 793.38C112.906 842.36 115.864 858.782 126.781 889.13C130.503 899.475 131.732 901.88 133.298 901.88C140.055 901.88 190.757 891.964 212.831 886.325C227.352 882.615 255.959 874.142 257.798 873.005C258.596 872.512 258.597 870.553 257.802 865.853C257.009 861.168 256.995 792.268 257.752 616.38C258.674 402.247 258.988 372.202 260.392 363.462C265.024 334.629 273.701 315.78 286.914 305.853C294.224 300.36 301.804 297.807 312.771 297.144L322.042 296.584L321.771 277.482L321.5 258.38L173.895 258.127L26.29 257.873L25.652 264.627ZM707.667 258.547C707.3 258.913 707 267.448 707 277.511C707 298.84 706.101 297.288 719 298.224C753.962 300.76 779.532 321.907 783.88 351.88C784.6 356.841 785.184 408.72 785.607 505.13C785.958 585.293 786.458 650.88 786.717 650.88C787.719 650.88 822.136 630.167 834.094 622.367L846.687 614.152L847.398 483.266C848.176 339.822 847.942 344.987 854.177 333.886C860.542 322.556 869.776 313.813 883.136 306.469C892.464 301.342 899.153 299.297 911.3 297.857L922 296.589V277.841C922 261.669 921.783 259.011 920.418 258.487C918.25 257.655 708.5 257.714 707.667 258.547ZM471.621 305.63C472.138 310.124 485 473.532 485 475.599C485 476.646 485.751 476.878 487.75 476.45C499.69 473.892 538.74 474.061 555.698 476.743L560.895 477.565L561.477 472.472C561.797 469.672 564.739 432.955 568.015 390.88C571.292 348.805 574.256 311.568 574.603 308.13L575.233 301.88H523.212H471.19L471.621 305.63ZM863.25 453.617L858 453.985V473.451V492.918L860.25 492.4C873.135 489.436 919.103 487.857 931.935 489.939C987.827 499.008 965.921 542.547 872.5 608.068C700.592 728.638 349.537 876.107 150.519 911.355C117.807 917.148 105.857 918.332 80.5 918.29C59.992 918.257 56.642 918.016 49.586 916.066C39.963 913.406 33.979 910.032 30.284 905.182C27.795 901.916 27.504 900.727 27.535 893.954C27.573 885.622 29.274 881.343 37.304 869.38C43.385 860.321 66.636 837.672 83.5 824.379C91.75 817.876 98.906 812.2 99.402 811.766C100.88 810.472 97.931 767.736 96.388 768.09C93.957 768.648 67.265 792.88 53.444 807.077C2.96997 858.922 -11.441 898.634 10.232 926.152C16.901 934.619 32.448 943.149 49.5 947.696C66.744 952.293 77.71 953.346 108.5 953.361C124.45 953.368 139.836 953.026 142.692 952.6L147.884 951.826L150.313 956.103C194.833 1034.5 211.325 1054.75 261.5 1092.67C289.35 1113.72 310.903 1126.28 337 1136.68C392.51 1158.79 437.322 1166.72 490.928 1163.9C536.65 1161.49 572 1154.4 606.27 1140.77C626.601 1132.68 661.558 1113.43 681.5 1099.34C727.724 1066.7 769.15 1017.38 797.053 961.774C816.272 923.477 829.422 881.32 838.018 830.455C844.801 790.312 846.113 773.863 846.719 721.334L847.251 675.287L863.375 663.184C910.318 627.949 950.676 588.71 970.222 559.3C981.06 542.992 987.633 526.448 988.683 512.834C990.925 483.756 968.136 463.91 924 456.506C907.368 453.716 880.262 452.427 863.25 453.617ZM759.451 466.36C727.056 472.532 684.244 482.829 648.921 492.946C637.139 496.32 627.137 499.302 626.694 499.574C626.251 499.845 629.626 502.353 634.194 505.146C646.132 512.447 659.802 522.748 668.442 530.955L675.932 538.069L693.716 532.55C717.777 525.083 729.913 521.602 753.5 515.403L773.5 510.146L773.768 487.013C773.98 468.815 773.766 463.9 772.768 463.972C772.071 464.023 766.078 465.097 759.451 466.36ZM491 485.522C485.775 486.317 477.061 488.081 471.636 489.442C462.051 491.847 441.309 499.156 439.851 500.643C439.094 501.415 396 594.536 396 595.4C396 595.674 397.24 597.609 398.756 599.702L401.512 603.507L485.37 588.383L569.228 573.258L570.566 569.319C572.806 562.728 581.209 557.547 586.794 559.312C588.168 559.747 591.222 554.759 602.5 533.659C610.2 519.252 616.631 507.166 616.791 506.8C617.22 505.817 600.094 498.564 587.823 494.53C575.589 490.509 561.896 487.388 547.5 485.34C534.582 483.501 503.621 483.601 491 485.522ZM1086.59 490.879C1079.66 492.123 1069.74 497.272 1065.94 501.605C1064.16 503.631 1061.53 507.784 1060.1 510.834C1057.86 515.602 1057.5 517.713 1057.52 525.88C1057.53 534.06 1057.91 536.179 1060.21 541.133C1064.34 549.999 1071.73 556.97 1089.23 568.493C1105.77 579.38 1110.35 583.91 1111.61 590.595C1112.5 595.362 1110.65 600.885 1106.97 604.405C1104.25 607.013 1103.09 607.382 1096.7 607.665C1090.85 607.924 1088.9 607.608 1086.3 605.98C1082.14 603.37 1079.95 599.915 1079.28 594.918L1078.74 590.88H1066.37C1052.21 590.88 1053.11 590.03 1055.47 601.16C1059.12 618.377 1069.86 628.174 1088.2 631.026C1097.91 632.535 1108.02 631.043 1116.7 626.822C1131.56 619.593 1139.3 602.474 1135.62 585.021C1134.76 580.973 1132.9 575.687 1131.49 573.274C1127.69 566.786 1119.26 559.078 1109.31 552.991C1086.85 539.254 1082.61 535.409 1081.35 527.652C1079.83 518.313 1089.48 511.048 1099.73 513.808C1104.82 515.179 1108.01 518.694 1109.51 524.601L1110.72 529.38H1122.61H1134.5L1134.2 524.88C1133.17 509.464 1125.04 498.031 1111.49 492.963C1105.24 490.625 1093.5 489.642 1086.59 490.879ZM421.5 509.127C390.069 526.628 366.325 548.811 347.739 578.04L344.14 583.7L359.673 591.29C368.216 595.465 375.402 598.88 375.643 598.88C375.884 598.88 377.305 597.975 378.801 596.869C380.298 595.762 383.503 594.519 385.924 594.106L390.326 593.354L410.768 549.055C422.011 524.691 431.05 504.612 430.855 504.436C430.66 504.26 426.45 506.371 421.5 509.127ZM618.729 515.13C616.836 518.568 610.465 530.481 604.571 541.604L593.856 561.827L595.643 564.854C596.627 566.518 597.672 567.879 597.966 567.877C599.274 567.871 642.252 559.952 642.443 559.682C642.561 559.516 641.947 550.408 641.079 539.441L639.5 519.503L631.5 514.229C627.1 511.329 623.201 508.939 622.836 508.918C622.471 508.897 620.623 511.693 618.729 515.13ZM1267.5 526.171C1264.75 527.489 1260.84 530.406 1258.81 532.654L1255.13 536.741L1254.31 531.561L1253.49 526.38L1245.74 526.088L1238 525.796V577.338V628.88H1249.5H1261L1261.02 593.13C1261.04 560.173 1261.19 557.053 1262.94 553.196C1266.29 545.819 1276.12 543.275 1281.3 548.448C1285.43 552.582 1286 558.219 1286 594.929V628.88H1297.5H1309V593.4C1309 554.403 1309.33 551.919 1315.02 547.867C1319 545.034 1325.98 545.168 1328.76 548.13C1333.24 552.911 1333.43 554.61 1333.79 592.63L1334.13 628.88H1345.07H1356L1355.98 591.63C1355.97 562.267 1355.66 553.05 1354.49 548.099C1350.64 531.759 1341.91 523.937 1327.5 523.912C1318.8 523.897 1312.15 526.736 1306.67 532.812C1304.57 535.147 1302.73 536.905 1302.6 536.719C1302.46 536.533 1301.34 534.919 1300.11 533.134C1296.2 527.477 1289.87 524.558 1280.59 524.141C1273.65 523.828 1271.79 524.117 1267.5 526.171ZM646 528.043C646 529.821 646.52 537.478 647.155 545.058C648.26 558.254 648.399 558.821 650.405 558.386C651.557 558.136 657.883 556.999 664.463 555.859C671.043 554.719 676.565 553.649 676.734 553.48C677.223 552.99 650.289 527.105 648.036 525.899C646.183 524.908 646 525.1 646 528.043ZM1148.26 564.63C1148.69 605.583 1148.94 608.001 1153.79 617.475C1156.25 622.295 1161.91 627.526 1166.93 629.624C1171.54 631.554 1181.19 631.709 1187.34 629.952C1190.53 629.041 1194.01 626.9 1197.55 623.664L1202.92 618.757L1203.59 623.819L1204.26 628.88H1212.13H1220V577.38V525.88H1208.5H1197L1196.99 560.63C1196.99 582.599 1196.59 596.822 1195.9 599.301C1193.59 607.61 1185.41 611.715 1178.19 608.186C1171.55 604.936 1171.09 601.964 1171.04 561.13L1171 525.88H1159.43H1147.85L1148.26 564.63ZM1361 526.145C1361 526.29 1368.46 547.103 1377.58 572.395L1394.16 618.38L1391.38 627.84C1387.64 640.546 1385.36 643.082 1377.12 643.678L1370.94 644.125L1371.22 654.753L1371.5 665.38L1378.33 665.678C1392.05 666.275 1400.16 661.564 1406.77 649.164C1408.73 645.478 1416.1 622.217 1426.93 585.494C1436.32 553.67 1444 527.238 1444 526.756C1444 526.274 1438.84 525.88 1432.54 525.88H1421.08L1419.11 532.63C1418.03 536.342 1414.62 548.155 1411.53 558.88C1408.44 569.605 1405.42 579.899 1404.83 581.755C1403.82 584.959 1403.28 583.629 1394.2 555.505L1384.63 525.88H1372.82C1366.32 525.88 1361 525.999 1361 526.145ZM664.259 561.817C656.427 563.308 649.739 564.808 649.397 565.15C648.712 565.834 659.563 708.107 660.757 714.115L661.5 717.85L694.75 701.188L728 684.526V679.795C728 671.641 724.925 650.842 722.026 639.38C715.518 613.656 703.207 587.891 686.789 565.63C683.904 561.718 681.115 558.928 680.155 558.993C679.245 559.055 672.092 560.326 664.259 561.817ZM619.504 569.717L599.508 573.38L598.206 577.354C595.928 584.312 590.89 587.869 583.282 587.891L579.5 587.902L559.177 625.891L538.855 663.88L540.927 666.515C542.354 668.328 543 670.609 543 673.83C543 678.246 543.211 678.612 546.75 680.334C564.171 688.812 643.447 725.88 644.157 725.88C644.657 725.88 647.302 724.747 650.033 723.363C653.426 721.644 655 720.229 655 718.9C655 716.245 644.197 578.826 643.422 571.63C642.94 567.147 642.44 565.899 641.152 565.967C640.243 566.016 630.502 567.703 619.504 569.717ZM484.5 594.248C438.85 602.576 401.561 609.834 401.636 610.376C401.741 611.143 493.25 655.146 513.766 664.296L518.032 666.198L520.59 663.795C522.425 662.071 524.692 661.249 528.607 660.886L534.065 660.38L554.38 622.383L574.695 584.387L572.659 581.633C571.54 580.119 569.921 578.931 569.062 578.993C568.203 579.055 530.15 585.92 484.5 594.248ZM335.518 600.12C332.572 606.319 329.869 612.555 329.511 613.979L328.862 616.567L350.681 612.945L372.5 609.323L372.763 606.352C373.047 603.14 374.459 603.943 346.188 591.237L340.875 588.85L335.518 600.12ZM348.064 618.97C336.274 621.105 326.328 623.196 325.963 623.616C325.042 624.674 321.999 636.08 322.006 638.446C322.013 640.661 347.157 681.141 348.493 681.088C348.976 681.069 355.796 667.239 363.648 650.355C377.649 620.252 377.892 619.611 376.213 617.3C374.024 614.288 373.855 614.298 348.064 618.97ZM398.496 617.887C397.178 620.019 391.29 622.204 386.591 622.306L381.682 622.411L366.873 655.596L352.064 688.78L392.154 752.58C414.203 787.67 432.362 816.516 432.506 816.681C432.651 816.847 437.646 815.047 443.608 812.681L454.447 808.38L487.129 747.536L519.812 686.692L517.406 683.146C515.825 680.817 515 678.184 515 675.469V671.337L457.75 644.098C426.262 629.117 400.189 616.864 399.809 616.87C399.429 616.875 398.838 617.333 398.496 617.887ZM292.453 639.506C281.479 645.311 271.488 650.705 270.25 651.493C268.006 652.922 268 653 268 680.403C268 695.515 268.183 707.88 268.406 707.88C268.629 707.88 276.692 704.012 286.324 699.284L303.837 690.687L304.452 682.034C305.493 667.391 307.875 650.872 310.517 639.983C311.905 634.265 312.897 629.444 312.723 629.269C312.548 629.095 303.427 633.701 292.453 639.506ZM318.664 652.043C315.262 671.24 315.321 707.003 318.786 727.114C319.803 733.018 320.875 738.089 321.169 738.382C321.582 738.795 336.544 708.266 343.985 691.829C345.047 689.482 344.207 687.766 333.456 670.329C319.427 647.575 319.45 647.604 318.664 652.043ZM1086.4 670.922C1075.03 672.924 1065.08 679.85 1060.45 688.978C1055.56 698.629 1055.44 712.866 1060.16 722.251C1064.98 731.816 1071.76 737.94 1091 750.111C1106.79 760.099 1111 765.174 1111 774.195C1110.99 782.787 1104.8 788.203 1095 788.203C1085.62 788.203 1079.97 783.591 1078.47 774.714L1077.82 770.88H1065.91H1054L1054.01 774.63C1054.03 781.839 1057.42 791.381 1062.41 798.28C1068.56 806.806 1084.7 812.706 1098.64 811.528C1121.61 809.586 1136 794.855 1136 773.288C1136 755.546 1127.54 744.197 1103.62 729.88C1085.78 719.195 1081 714.047 1081 705.506C1081 695.3 1093.17 690.085 1103.76 695.753C1106.4 697.166 1108.48 700.982 1109.41 706.13L1110.09 709.88H1122.19H1134.29L1133.67 703.989C1132.43 692.179 1126.55 681.76 1118.1 676.456C1110.26 671.527 1096.56 669.135 1086.4 670.922ZM1154 693.88V705.88H1147.5H1141V716.38V726.88H1147.5H1154L1154.01 751.13C1154.02 785.186 1155.5 792.436 1164.26 801.196C1169.74 806.673 1176.73 809.403 1187.75 810.367L1196 811.088V799.984V788.88H1191.47C1188.98 788.88 1185.36 788.221 1183.43 787.416C1177.45 784.915 1177 782.516 1177 752.912V726.88H1186H1195V716.38V705.88H1186H1177V693.88V681.88H1165.5H1154V693.88ZM1302 693.88V705.88H1295.5H1289V716.38V726.88H1295.5H1302L1302.01 751.13C1302.01 764.467 1302.48 778.232 1303.04 781.717C1306 799.913 1317.01 809.353 1336.12 810.067L1344.5 810.38L1344.78 799.63L1345.07 788.88H1340C1337.21 788.88 1333.36 788.221 1331.43 787.416C1325.45 784.915 1325 782.516 1325 752.912V726.88H1334H1343V716.38V705.88H1334H1325V693.88V681.88H1313.5H1302V693.88ZM537.102 686.466C534.796 688.104 532.342 688.88 529.463 688.88H525.222L497.442 740.63C482.162 769.092 468.114 795.205 466.224 798.658L462.786 804.935L468.143 802.829C513.776 784.884 582.466 755.22 625.826 734.732L637.151 729.38L619.826 721.207C610.296 716.711 588.661 706.474 571.747 698.457C554.833 690.44 540.883 683.919 540.747 683.966C540.611 684.013 538.971 685.138 537.102 686.466ZM336.176 721.13L323.954 747.38L325.56 752.781C330.902 770.738 346.158 799.1 360.846 818.38C366.63 825.973 376.975 836.876 378.409 836.891C379.399 836.902 426.01 819.956 426.864 819.275C427.331 818.903 349.684 694.979 348.949 694.923C348.646 694.899 342.898 706.693 336.176 721.13ZM1232.73 704.906C1219.78 708.17 1210.4 718.695 1208.46 732.13L1207.77 736.88H1219.19H1230.6L1231.89 733.311C1233.49 728.873 1238.17 725.889 1243.53 725.884C1251.24 725.877 1255 730.933 1255 741.33V747.88H1244.18C1227 747.88 1216.78 752.06 1210.18 761.782C1202.44 773.184 1203.7 791.632 1212.92 802.141C1223.12 813.75 1244.02 814.913 1254.48 804.451L1258.81 800.123L1259.47 804.502L1260.12 808.88H1269.11H1278.1L1277.8 768.13L1277.5 727.38L1274.91 721.88C1271.29 714.188 1267.79 710.413 1261.38 707.275C1256.74 705.008 1254.27 704.518 1246.17 704.263C1240.85 704.095 1234.81 704.384 1232.73 704.906ZM1379.31 705.673C1368.61 709.504 1362.3 715.755 1358.42 726.38C1356.91 730.518 1356.53 735.254 1356.21 753.855C1355.8 777.8 1356.54 784.771 1360.31 792.833C1363.45 799.558 1370.58 806.203 1377.35 808.737C1384.29 811.336 1398.01 811.659 1405.61 809.402C1416.53 806.162 1425.16 797.286 1428.43 785.948C1431.17 776.474 1431.6 776.88 1418.64 776.88H1407.27L1405.55 781.401C1403.55 786.63 1399.99 788.96 1393.64 789.194C1383.99 789.551 1379 783.718 1379 772.064V765.88H1404H1429L1428.98 752.13C1428.96 730.665 1426.3 721.392 1417.83 713.178C1411.36 706.899 1405.34 704.63 1394 704.188C1386.57 703.898 1383.37 704.222 1379.31 705.673ZM784.669 745.13C783.681 787.833 780.965 814.335 773.933 849.88C763.928 900.453 747.976 945.298 726.148 984.212C716.797 1000.88 711.253 1009.03 696.421 1027.88C678.155 1051.1 660.573 1067.16 635.884 1083.19C615.714 1096.29 587.51 1106.98 559.561 1112.14C549.01 1114.08 544.12 1114.36 520.5 1114.36C497.056 1114.36 491.919 1114.08 481.5 1112.18C448.046 1106.08 411.737 1091.59 383.263 1072.97C345.951 1048.57 322.57 1026.23 301.589 994.944C292.791 981.824 282.395 961.157 278.011 948.072C274.54 937.711 274.24 934.241 276.75 933.493C277.712 933.206 286.825 930.679 297 927.877C332.745 918.032 381.101 902.938 419.388 889.675L445.276 880.706L453.388 883.94C465.047 888.587 470.247 890.102 469.358 888.593C468.965 887.926 466.87 884.546 464.702 881.083C462.535 877.619 460.96 874.587 461.203 874.343C461.447 874.1 462.963 873.65 464.573 873.343C467.358 872.812 467.768 873.224 473 881.809C476.025 886.773 479.175 891.056 480 891.328C484.672 892.867 502.415 895.005 515 895.544C548.204 896.966 580.927 890.138 611.793 875.344C630.136 866.553 652.852 851.225 661.835 841.578L664.17 839.07L662.562 817.225C661.678 805.21 660.698 793.097 660.384 790.306C659.856 785.612 660.014 785.101 662.494 783.476C663.968 782.51 665.384 781.93 665.64 782.187C665.897 782.444 666.969 793.79 668.022 807.402C669.075 821.013 670.113 832.326 670.329 832.543C670.891 833.104 683.404 818.659 689.548 810.354C699.473 796.942 707.109 783.193 714.517 765.401L718.671 755.422L735.448 746.071C744.675 740.928 759.487 732.281 768.362 726.856C777.238 721.431 784.685 716.967 784.911 716.936C785.137 716.905 785.028 729.592 784.669 745.13ZM1398.56 726.342C1403.37 728.352 1405.95 734.183 1405.98 743.13L1406 749.88H1392.5H1379L1379.02 743.13C1379.07 728.509 1387.15 721.571 1398.56 726.342ZM1254.98 774.63C1254.97 783.185 1253.89 786.152 1249.68 789.284C1247.56 790.853 1245.38 791.38 1240.99 791.38C1235.9 791.38 1234.74 791.003 1232.13 788.507C1228.13 784.674 1227.19 779.2 1229.66 774.139C1232.31 768.72 1236.64 766.883 1246.75 766.882L1255 766.88L1254.98 774.63ZM1249.12 859.592C1246.92 860.674 1245.08 862.687 1243.89 865.32C1241.58 870.409 1241.58 872.353 1243.9 877.456C1247 884.3 1255.27 886.84 1261.7 882.924C1276.78 873.724 1264.96 851.789 1249.12 859.592ZM1584.37 859.798C1579.62 862.69 1578 865.668 1578 871.468C1578 877.216 1580.16 880.877 1585.04 883.4C1593.55 887.8 1603.99 881.176 1603.99 871.38C1603.99 861.102 1592.93 854.575 1584.37 859.798ZM1059 917.244C1059 944.393 1059.42 968.821 1059.93 971.527C1063.51 990.374 1074.67 1001.85 1092.44 1004.94C1104.64 1007.07 1117.94 1004.33 1126.88 997.849C1132.42 993.839 1137.41 986.724 1140.18 978.88C1142.44 972.47 1142.47 971.659 1142.79 920.13L1143.11 867.88H1130.56H1118V916.698C1118 971.433 1117.82 973.2 1111.57 978.684C1102.78 986.403 1088.54 982.315 1085.19 971.108C1084.34 968.284 1084 952.91 1084 917.514V867.88H1071.5H1059V917.244ZM1623 888.38V900.88H1616H1609V911.38V921.88H1615.94H1622.89L1623.19 951.155L1623.5 980.43L1626.79 987.113C1628.77 991.125 1631.75 995.222 1634.25 997.362C1639.57 1001.91 1648.98 1004.88 1658.1 1004.88H1665V994.496V984.113L1658.54 983.421C1645.92 982.07 1645 979.483 1645 945.331V921.88H1654H1663V911.419V900.958L1654.25 900.669L1645.5 900.38L1645.22 888.13L1644.94 875.88H1633.97H1623V888.38ZM1193.33 898.883C1187.54 900.085 1184.16 902.036 1179.5 906.859L1175.5 911.004L1174.45 906.192L1173.4 901.38L1165.7 901.088L1158 900.796V952.338V1003.88H1169.5H1181V968.092C1181 932.967 1181.04 932.221 1183.25 927.842C1187.33 919.758 1197.04 917.582 1202.54 923.519C1206.41 927.692 1207 933.848 1207 969.929V1003.88H1218.5H1230L1229.98 969.63C1229.96 933.763 1229.34 925.546 1226.01 916.629C1220.9 902.968 1207.83 895.872 1193.33 898.883ZM1384.23 898.948C1377.1 900.194 1370.13 903.89 1365.74 908.743C1357.59 917.763 1356.03 924.708 1356.03 951.88C1356.03 980 1358.03 987.775 1367.67 997.081C1374.34 1003.53 1379.83 1005.36 1392.5 1005.37C1402.47 1005.38 1404.06 1005.12 1409.5 1002.58C1420.37 997.503 1428.04 987.202 1429.64 975.499L1430.27 970.88H1418.79H1407.32L1406.18 974.69C1404.45 980.442 1401 983.132 1394.67 983.657C1384.32 984.515 1379.07 978.626 1379.02 966.13L1379 959.88H1404H1429V945.929C1429 930.494 1427.97 923.947 1424.33 916.166C1418.25 903.181 1401.39 895.944 1384.23 898.948ZM1523.87 898.845C1513.41 900.73 1504.98 906.372 1500.67 914.38C1497.56 920.159 1497.56 934.599 1500.69 940.448C1504.94 948.43 1512.3 953.417 1530.96 960.96C1541.31 965.144 1547 970.054 1547 974.791C1547 981.52 1542.57 984.88 1533.7 984.88C1526.28 984.88 1522.02 981.989 1520 975.593L1518.5 970.835L1507.5 971.107L1496.5 971.38L1496.79 975.851C1497.2 982.131 1501.41 990.888 1506.33 995.697C1513.04 1002.26 1520.69 1005.22 1532.19 1005.7C1549.36 1006.42 1560.67 1001.13 1566.79 989.518C1569.17 984.98 1569.49 983.27 1569.49 974.88C1569.49 963.729 1567.91 959.814 1560.67 953.148C1555.48 948.361 1550.24 945.546 1537.04 940.447C1524.75 935.702 1521 932.889 1521 928.411C1521 926.559 1521.28 924.315 1521.62 923.425C1523.1 919.582 1532.48 917.59 1538.43 919.855C1541.39 920.98 1544.99 926.34 1545 929.63C1545 931.828 1545.26 931.88 1556.14 931.88H1567.28L1566.66 926.639C1565.79 919.352 1560.82 909.698 1555.94 905.829C1553.74 904.089 1549.8 901.85 1547.17 900.853C1541.42 898.667 1530.22 897.702 1523.87 898.845ZM1473.88 900.261C1468.64 902.134 1463.13 905.746 1461.33 908.493C1459.05 911.973 1458.34 911.472 1457.59 905.88L1456.93 900.88H1448.97H1441V952.38V1003.88H1452.5H1464L1464.01 970.13C1464.01 948.717 1464.41 934.935 1465.11 932.427C1467.95 922.19 1480.16 917.514 1493.75 921.46C1495.99 922.109 1496 922.048 1496 911.113C1496 900.551 1495.91 900.089 1493.75 899.51C1489.82 898.458 1477.64 898.918 1473.88 900.261ZM1244 952.38V1003.88H1255.5H1267V952.38V900.88H1255.5H1244V952.38ZM1272.28 902.165C1272.56 902.907 1278.49 924.633 1285.44 950.447C1292.4 976.26 1298.56 998.856 1299.13 1000.66L1300.17 1003.94L1312.83 1003.66L1325.49 1003.38L1339.2 952.88C1346.74 925.105 1352.93 902.043 1352.96 901.63C1352.98 901.217 1347.63 900.88 1341.07 900.88C1330.56 900.88 1329.07 901.089 1328.63 902.63C1327.43 906.756 1317.95 951.408 1315.94 962.38C1313.32 976.729 1312.44 978.877 1311.48 973.351C1310.01 964.846 1303.81 934.561 1300.24 918.38L1296.48 901.38L1284.12 901.098C1274.08 900.869 1271.86 901.069 1272.28 902.165ZM1579.24 952.13L1579.5 1003.38L1590.75 1003.66L1602 1003.95V952.413V900.88H1590.49H1578.98L1579.24 952.13ZM1669.09 912.13C1671.3 918.318 1678.77 939.076 1685.68 958.26L1698.26 993.139L1695.53 1002.36C1694.03 1007.44 1691.77 1012.89 1690.5 1014.48C1688.51 1016.98 1687.35 1017.44 1681.85 1017.87L1675.5 1018.38L1675.22 1029.13L1674.93 1039.88L1684.22 1039.86C1691.05 1039.84 1694.57 1039.35 1697.54 1038C1702.95 1035.54 1709.21 1028.22 1712.42 1020.6C1714.71 1015.16 1748 903.936 1748 901.725C1748 901.26 1742.84 900.88 1736.54 900.88H1725.08L1723.11 907.63C1722.02 911.342 1718.34 924.055 1714.94 935.88C1711.54 947.705 1708.45 957.719 1708.07 958.132C1707.7 958.546 1706.36 955.621 1705.1 951.632C1703.84 947.644 1699.67 934.592 1695.83 922.63L1688.85 900.88H1676.96H1665.06L1669.09 912.13ZM499.004 909.085C499.006 910.347 501.024 935.41 503.488 964.781C506.865 1005.04 508.343 1018.75 509.493 1020.51C512.157 1024.58 516.553 1026.13 524.166 1025.7C530.205 1025.36 531.391 1024.95 534.045 1022.3L537.062 1019.28L541.636 963.519C544.152 932.85 546.051 907.612 545.855 907.435C545.66 907.257 541.225 907.503 536 907.981C527.142 908.791 509.701 908.433 502.25 907.289C499.382 906.848 499 907.059 499.004 909.085ZM1400.49 922.048C1404.33 925.068 1406 929.714 1406 937.348V943.88H1392.5H1379L1379.01 938.13C1379.02 925.491 1383.15 919.88 1392.44 919.88C1396.35 919.88 1398.45 920.445 1400.49 922.048Z" fill="#0058A8"/>
</svg>
